<?xml version="1.0" encoding="utf-8"?>
<!-- Generator: Adobe Illustrator 26.0.1, SVG Export Plug-In . SVG Version: 6.00 Build 0)  -->
<svg version="1.1" id="Layer_1" xmlns="http://www.w3.org/2000/svg" xmlns:xlink="http://www.w3.org/1999/xlink" x="0px" y="0px"
	 viewBox="0 0 1034 92.95" style="enable-background:new 0 0 1034 92.95;" xml:space="preserve">
<style type="text/css">
	.st0{fill:#FFFFFF;}
	.st1{fill:#1D9BF0;}
</style>
<g>
	<path class="st1" d="M48.32,15.7h-16.8v74.31H16.8V15.7H0V2.94h48.32V15.7z"/>
	<path class="st1" d="M54.57,2.94h13.86l5.15,56.41c0.37,4.54,0.74,9.44,0.86,14.59h0.49c0.49-4.41,0.98-9.2,1.35-13.73l6.87-57.27
		h15.08l6.74,57.27c0.37,4.54,0.86,9.32,1.35,13.73h0.49c0.12-5.15,0.49-10.06,0.86-14.59l5.15-56.41h13.86l-10.06,87.06H98.47
		l-6.38-53.34c-0.61-5.4-0.98-11.4-1.23-15.7h-0.61c-0.12,4.29-0.49,10.3-1.1,15.7L82.9,90.01H64.62L54.57,2.94z"/>
	<path class="st1" d="M135.75,90.01V2.94h14.84v87.06H135.75z"/>
	<path class="st1" d="M207.12,15.7h-16.8v74.31H175.6V15.7h-16.8V2.94h48.32V15.7z"/>
	<path class="st1" d="M261.07,15.7h-16.8v74.31h-14.72V15.7h-16.8V2.94h48.32V15.7z"/>
	<path class="st1" d="M308.04,78.24v11.77h-38.75V2.94h37.89v11.77h-23.05v24.53h21.22v11.77h-21.22v27.22H308.04z"/>
	<path class="st1" d="M339.92,53.96h-6.75v36.05h-14.84V2.94h21.7c16.92,0,23.79,8.34,23.79,22.81v4.54
		c0,10.54-3.8,17.29-10.42,20.36l12.63,39.36h-15.57L339.92,53.96z M339.06,44.15c6.99,0,9.57-4.29,9.57-13.24v-5.27
		c0-8.71-2.7-12.14-9.57-12.14h-5.89v30.66H339.06z"/>
	<path class="st1" d="M388.73,68.55l16.43-9.69c6.5,11.4,19.86,18.52,39.12,18.52c17.17,0,25.26-3.68,25.26-11.53
		c0-6.5-4.54-9.2-16.43-10.42l-27.1-2.82c-20.97-2.21-30.9-10.06-30.9-25.63C395.11,10.06,411.54,0,440.72,0
		c23.54,0,40.22,6.62,49.91,20.23l-14.84,10.54c-6.01-9.81-18.15-15.45-35.93-15.45c-15.2,0-23.3,3.8-23.3,10.67
		c0,6.25,4.05,8.71,16.56,9.93l24.77,2.57c23.54,2.33,33.35,9.44,33.35,25.26c0,18.76-17.04,29.19-47.95,29.19
		C416.2,92.95,396.94,84.12,388.73,68.55z"/>
	<path class="st1" d="M600.38,31.39c0,18.15-14.35,29.92-36.42,29.92h-35.68v28.69h-21.46V2.94h58.37
		C587.02,2.94,600.38,13.73,600.38,31.39z M577.82,31.88c0-8.95-6.38-13.98-17.66-13.98h-31.88v28.45h31.76
		C571.2,46.35,577.82,40.96,577.82,31.88z"/>
	<path class="st1" d="M676.04,71.98h-52.36l-8.83,18.03H591.8l45-87.06h26.12l45,87.06h-23.17L676.04,71.98z M669.06,57.76
		L655.2,29.43c-1.23-2.82-3.8-9.2-5.15-13.12h-0.37c-1.35,3.93-3.92,10.3-5.15,13.12l-13.86,28.33H669.06z"/>
	<path class="st1" d="M708.17,46.72C708.17,19.13,731.6,0,765.93,0c28.08,0,47.95,12.14,53.71,32.62l-22.32,3.68
		c-3.68-12.75-14.71-19.74-31.76-19.74c-21.58,0-34.95,11.53-34.95,29.92c0,18.03,13.73,29.92,35.2,29.92
		c16.8,0,27.59-6.5,31.88-18.76l21.82,4.54c-7.23,19.74-26.49,30.78-54.57,30.78C730.12,92.95,708.17,74.8,708.17,46.72z"/>
	<path class="st1" d="M922.65,74.56v15.45h-87.31V2.94h86.45v15.45H856.8v20.11h62.9v14.47h-62.9v21.58H922.65z"/>
	<path class="st1" d="M931.48,68.55l16.44-9.69c6.5,11.4,19.86,18.52,39.11,18.52c17.17,0,25.26-3.68,25.26-11.53
		c0-6.5-4.54-9.2-16.44-10.42l-27.1-2.82c-20.97-2.21-30.9-10.06-30.9-25.63C937.86,10.06,954.29,0,983.48,0
		c23.55,0,40.22,6.62,49.91,20.23l-14.84,10.54c-6.01-9.81-18.15-15.45-35.93-15.45c-15.2,0-23.3,3.8-23.3,10.67
		c0,6.25,4.05,8.71,16.56,9.93l24.77,2.57c23.54,2.33,33.35,9.44,33.35,25.26c0,18.76-17.05,29.19-47.95,29.19
		C958.95,92.95,939.7,84.12,931.48,68.55z"/>
</g>
</svg>
