<?xml version="1.0" encoding="UTF-8" standalone="no"?>
<!-- Created with Inkscape (http://www.inkscape.org/) -->

<svg
   width="512"
   height="512"
   viewBox="0 0 135.46666 135.46666"
   version="1.1"
   id="svg5"
   inkscape:version="1.2.2 (b0a8486541, 2022-12-01)"
   sodipodi:docname="E.svg"
   inkscape:export-filename="Ether.png"
   inkscape:export-xdpi="96"
   inkscape:export-ydpi="96"
   xmlns:inkscape="http://www.inkscape.org/namespaces/inkscape"
   xmlns:sodipodi="http://sodipodi.sourceforge.net/DTD/sodipodi-0.dtd"
   xmlns="http://www.w3.org/2000/svg"
   xmlns:svg="http://www.w3.org/2000/svg">
  <sodipodi:namedview
     id="namedview7"
     pagecolor="#ffffff"
     bordercolor="#000000"
     borderopacity="0.25"
     inkscape:showpageshadow="2"
     inkscape:pageopacity="0.0"
     inkscape:pagecheckerboard="0"
     inkscape:deskcolor="#d1d1d1"
     inkscape:document-units="mm"
     showgrid="false"
     inkscape:zoom="1"
     inkscape:cx="137"
     inkscape:cy="275"
     inkscape:window-width="1662"
     inkscape:window-height="846"
     inkscape:window-x="210"
     inkscape:window-y="110"
     inkscape:window-maximized="0"
     inkscape:current-layer="layer1" />
  <defs
     id="defs2" />
  <g
     inkscape:label="Layer 1"
     inkscape:groupmode="layer"
     id="layer1">
    <path
       style="fill:#eab832;fill-opacity:1;stroke-width:0.860872"
       d="M 58.126515,66.723797 C 54.785831,59.104011 46.365402,46.41956 40.94621,37.303914 36.649326,30.076118 33.716817,26.146996 37.497653,19.403838 c 4.755449,-6.79426 13.068007,-5.501941 17.312571,-5.501941 5.548648,0 32.053111,-0.0034 32.053111,-0.0034 l -0.09087,6.733327 -35.028111,0.428867 c 0,0 -3.749452,-0.252429 -5.981236,2.7615 -1.686827,2.277968 -0.186775,6.255511 0.959338,7.953276 6.232966,9.232987 18.253071,29.369608 18.253071,29.369608 z"
       id="path1969"
       sodipodi:nodetypes="cscscccsscc" />
    <path
       id="path6885"
       style="opacity:1;fill:#eab832;fill-opacity:1;stroke-width:0.459692"
       d="m 89.462871,10.634538 a 6.4513021,6.4513021 0 0 0 -6.450957,6.451857 6.4513021,6.4513021 0 0 0 6.450957,6.450961 6.4513021,6.4513021 0 0 0 6.451861,-6.450961 6.4513021,6.4513021 0 0 0 -6.451861,-6.451857 z m 0,3.998068 a 2.4533334,2.4533334 0 0 1 2.45379,2.453789 2.4533334,2.4533334 0 0 1 -2.45379,2.452893 2.4533334,2.4533334 0 0 1 -2.452885,-2.452893 2.4533334,2.4533334 0 0 1 2.452885,-2.453789 z" />
    <path
       id="path6885-3"
       style="fill:#eab832;fill-opacity:1;stroke-width:0.459692"
       d="m 89.343678,109.35554 a 6.4513021,6.4513021 0 0 0 -6.450957,6.45186 6.4513021,6.4513021 0 0 0 6.450957,6.45096 6.4513021,6.4513021 0 0 0 6.451863,-6.45096 6.4513021,6.4513021 0 0 0 -6.451863,-6.45186 z m 0,3.99807 a 2.4533334,2.4533334 0 0 1 2.45379,2.45379 2.4533334,2.4533334 0 0 1 -2.45379,2.45289 2.4533334,2.4533334 0 0 1 -2.452886,-2.45289 2.4533334,2.4533334 0 0 1 2.452886,-2.45379 z" />
    <path
       id="path6885-3-6"
       style="opacity:1;fill:#eab832;fill-opacity:1;stroke-width:0.459692"
       d="m 64.724803,60.132066 a 6.4513021,6.4513021 0 0 0 -6.450956,6.451858 6.4513021,6.4513021 0 0 0 6.450956,6.450962 6.4513021,6.4513021 0 0 0 6.451863,-6.450962 6.4513021,6.4513021 0 0 0 -6.451863,-6.451858 z m 0,3.998069 a 2.4533334,2.4533334 0 0 1 2.45379,2.453789 2.4533334,2.4533334 0 0 1 -2.45379,2.452891 2.4533334,2.4533334 0 0 1 -2.452885,-2.452891 2.4533334,2.4533334 0 0 1 2.452885,-2.453789 z" />
    <path
       style="fill:#eab832;fill-opacity:1;stroke-width:0.860872"
       d="m 58.132267,66.532853 c -3.340686,7.619786 -11.761115,20.304237 -17.180305,29.419885 -4.296885,7.227802 -7.229408,11.156922 -3.448573,17.900082 4.755465,6.79426 13.068008,5.50194 17.312586,5.50194 5.548649,0 32.053096,0.004 32.053096,0.004 l -0.09087,-6.73333 -35.028097,-0.42887 c 0,0 -3.749452,0.25243 -5.981251,-2.7615 -1.686811,-2.27796 -0.186759,-6.25551 0.959354,-7.95327 6.232964,-9.232994 18.253055,-29.369614 18.253055,-29.369614 z"
       id="path1969-6"
       sodipodi:nodetypes="cscscccsscc" />
  </g>
</svg>
