<?xml version="1.0" encoding="UTF-8" standalone="no"?>
<!-- Created with Inkscape (http://www.inkscape.org/) -->

<svg
   width="600"
   height="400"
   viewBox="0 0 158.75 105.83333"
   version="1.1"
   id="svg5"
   inkscape:version="1.2.2 (b0a8486541, 2022-12-01)"
   sodipodi:docname="Ether.svg"
   xmlns:inkscape="http://www.inkscape.org/namespaces/inkscape"
   xmlns:sodipodi="http://sodipodi.sourceforge.net/DTD/sodipodi-0.dtd"
   xmlns="http://www.w3.org/2000/svg"
   xmlns:svg="http://www.w3.org/2000/svg">
  <sodipodi:namedview
     id="namedview7"
     pagecolor="#ffffff"
     bordercolor="#000000"
     borderopacity="0.25"
     inkscape:showpageshadow="2"
     inkscape:pageopacity="0.0"
     inkscape:pagecheckerboard="0"
     inkscape:deskcolor="#d1d1d1"
     inkscape:document-units="mm"
     showgrid="false"
     inkscape:zoom="1"
     inkscape:cx="240.5"
     inkscape:cy="321.5"
     inkscape:window-width="2299"
     inkscape:window-height="1207"
     inkscape:window-x="26"
     inkscape:window-y="23"
     inkscape:window-maximized="0"
     inkscape:current-layer="layer1" />
  <defs
     id="defs2" />
  <g
     inkscape:label="Layer 1"
     inkscape:groupmode="layer"
     id="layer1">
    <path
       style="fill:#eab832;fill-opacity:1;stroke-width:0.570291"
       d="m 26.862792,53.056246 c -2.21306,-5.047779 -7.79123,-13.450679 -11.381211,-19.489401 -2.846496,-4.788102 -4.789162,-7.390976 -2.284522,-11.858026 3.150284,-4.500903 8.656989,-3.644798 11.468832,-3.644798 3.675743,0 21.233803,-0.0023 21.233803,-0.0023 l -0.0602,4.460538 -23.204613,0.284106 c 0,0 -2.483847,-0.167224 -3.962314,1.829374 -1.117445,1.509055 -0.123723,4.144005 0.635526,5.268701 4.129071,6.116455 12.091866,19.456096 12.091866,19.456096 z"
       id="path1969"
       sodipodi:nodetypes="cscscccsscc" />
    <g
       aria-label="ther"
       id="text2216"
       style="font-size:45.6234px;fill:#eab832;stroke-width:0.570291"
       transform="translate(-61.975545,0.09301758)">
      <path
         d="m 131.0337,64.368141 q -0.18249,3.193639 -1.73369,4.744834 -1.68806,1.459949 -4.83608,1.459949 -3.55862,0 -5.01857,-1.551196 -1.45995,-1.688065 -1.45995,-5.337938 V 48.628068 h -3.60425 v -2.372417 h 3.60425 v -7.345368 h 4.10611 v 7.345368 h 7.71035 v 2.372417 h -7.71035 V 63.68379 q 0,3.011145 0.5931,3.87799 0.5931,0.821221 2.1443,0.821221 1.5512,0 2.32679,-0.958092 0.68435,-0.912468 0.7756,-3.056768 z"
         style="font-family:'DejaVu Math TeX Gyre';-inkscape-font-specification:'DejaVu Math TeX Gyre';fill:#6c6783"
         id="path1634" />
      <path
         d="m 159.45704,69.934196 h -11.3146 V 67.56178 h 3.55862 V 56.155929 q 0,-4.334223 -1.09496,-5.931042 -1.04934,-1.596819 -3.74112,-1.596819 -2.82865,0 -4.33422,2.053053 -1.50558,2.098676 -1.50558,6.067912 V 67.56178 h 3.55863 v 2.372416 H 133.22358 V 67.56178 h 3.6955 V 37.632828 h -3.92361 v -2.372417 h 8.02971 v 15.192593 q 1.18621,-2.463664 2.9199,-3.604249 1.82494,-1.231832 4.24298,-1.231832 3.96923,0 5.79417,2.235547 1.82494,2.326794 1.82494,7.026004 V 67.56178 h 3.64987 z"
         style="font-family:'DejaVu Math TeX Gyre';-inkscape-font-specification:'DejaVu Math TeX Gyre';fill:#6c6783"
         id="path1636" />
      <path
         d="m 180.62625,56.155929 q -0.13687,-4.106106 -1.73368,-6.250406 -1.64245,-2.098676 -4.65359,-2.098676 -2.87428,0 -4.4711,2.1443 -1.64244,2.098676 -1.9618,6.204782 z m 4.83608,2.372417 h -17.65625 v 0.182494 q 0,4.83608 1.77931,7.208497 1.82494,2.463664 5.33794,2.463664 2.7374,0 4.42547,-1.414326 1.73369,-1.459948 2.41804,-4.197353 h 3.28488 q -0.95809,3.87799 -3.60424,5.839796 -2.64616,1.961806 -6.93476,1.961806 -5.20107,0 -8.34908,-3.421755 -3.14802,-3.421755 -3.14802,-9.079057 0,-5.566055 3.10239,-9.033433 3.05677,-3.421756 8.12097,-3.421756 5.38356,0 8.25783,3.330509 2.9199,3.330508 2.96552,9.580914 z"
         style="font-family:'DejaVu Math TeX Gyre';-inkscape-font-specification:'DejaVu Math TeX Gyre';fill:#6c6783"
         id="path1638" />
      <path
         d="m 209.50585,52.14107 h -2.37241 q -0.0456,-1.733689 -0.95809,-2.646157 -0.86685,-0.866845 -2.55491,-0.866845 -3.05677,0 -4.60797,2.098676 -1.64244,2.1443 -1.64244,6.022289 V 67.56178 h 4.74483 v 2.372416 H 189.56843 V 67.56178 h 3.69549 V 48.582445 h -3.92361 v -2.326794 h 8.02972 v 4.197353 q 1.18621,-2.463664 3.10239,-3.649872 1.87056,-1.186209 4.60796,-1.186209 1.00372,0 2.09868,0.136871 l 2.32679,0.456234 z"
         style="font-family:'DejaVu Math TeX Gyre';-inkscape-font-specification:'DejaVu Math TeX Gyre';fill:#6c6783"
         id="path1640" />
    </g>
    <path
       id="path6885-5-9-1-7-9-0"
       style="fill:#6c6783;fill-opacity:1;stroke-width:0.175648"
       d="m 68.76338,45.115997 a 2.421973,2.5088881 0 0 0 -2.42185,2.509104 2.421973,2.5088881 0 0 0 2.42185,2.508756 2.421973,2.5088881 0 0 0 2.42217,-2.508756 2.421973,2.5088881 0 0 0 -2.42217,-2.509104 z m 0,1.554834 a 0.92103998,0.95409249 0 0 1 0.9212,0.95427 0.92103998,0.95409249 0 0 1 -0.9212,0.953922 0.92103998,0.95409249 0 0 1 -0.92088,-0.953922 0.92103998,0.95409249 0 0 1 0.92088,-0.95427 z" />
    <path
       id="path6885-5-9-1-7-9-0-6"
       style="fill:#6c6783;fill-opacity:1;stroke-width:0.175648"
       d="m 70.09702,34.081907 a 2.421973,2.5088881 0 0 0 -2.42185,2.509104 2.421973,2.5088881 0 0 0 2.42185,2.508756 2.421973,2.5088881 0 0 0 2.42217,-2.508756 2.421973,2.5088881 0 0 0 -2.42217,-2.509104 z m 0,1.554834 a 0.92103998,0.95409249 0 0 1 0.9212,0.95427 0.92103998,0.95409249 0 0 1 -0.9212,0.953922 0.92103998,0.95409249 0 0 1 -0.92088,-0.953922 0.92103998,0.95409249 0 0 1 0.92088,-0.95427 z" />
    <path
       id="path6885-5-9-1-7-9-0-6-2"
       style="fill:#6c6783;fill-opacity:1;stroke-width:0.175648"
       d="m 98.4247,66.365277 a 2.421973,2.5088881 0 0 0 -2.42185,2.509104 2.421973,2.5088881 0 0 0 2.42185,2.508756 2.421973,2.5088881 0 0 0 2.42217,-2.508756 2.421973,2.5088881 0 0 0 -2.42217,-2.509104 z m 0,1.554834 a 0.92103998,0.95409249 0 0 1 0.9212,0.95427 0.92103998,0.95409249 0 0 1 -0.9212,0.953922 0.92103998,0.95409249 0 0 1 -0.92088,-0.953922 0.92103998,0.95409249 0 0 1 0.92088,-0.95427 z" />
    <path
       id="path6885"
       style="opacity:1;fill:#eab832;fill-opacity:1;stroke-width:0.304526"
       d="m 47.621779,15.899536 a 4.2737087,4.2737087 0 0 0 -4.273485,4.274077 4.2737087,4.2737087 0 0 0 4.273485,4.273483 4.2737087,4.2737087 0 0 0 4.274081,-4.273483 4.2737087,4.2737087 0 0 0 -4.274081,-4.274077 z m 0,2.648548 a 1.6252273,1.6252273 0 0 1 1.625531,1.625529 1.6252273,1.6252273 0 0 1 -1.625531,1.624935 1.6252273,1.6252273 0 0 1 -1.624935,-1.624935 1.6252273,1.6252273 0 0 1 1.624935,-1.625529 z" />
    <path
       id="path6885-3"
       style="fill:#eab832;fill-opacity:1;stroke-width:0.304526"
       d="m 47.542819,81.297933 a 4.2737087,4.2737087 0 0 0 -4.273485,4.274077 4.2737087,4.2737087 0 0 0 4.273485,4.273483 4.2737087,4.2737087 0 0 0 4.274081,-4.273483 4.2737087,4.2737087 0 0 0 -4.274081,-4.274077 z m 0,2.648548 a 1.6252273,1.6252273 0 0 1 1.625531,1.625529 1.6252273,1.6252273 0 0 1 -1.625531,1.624935 1.6252273,1.6252273 0 0 1 -1.624935,-1.624935 1.6252273,1.6252273 0 0 1 1.624935,-1.625529 z" />
    <path
       id="path6885-3-6"
       style="opacity:1;fill:#eab832;fill-opacity:1;stroke-width:0.304526"
       d="m 31.233874,48.689509 a 4.2737087,4.2737087 0 0 0 -4.27348,4.274077 4.2737087,4.2737087 0 0 0 4.27348,4.273483 4.2737087,4.2737087 0 0 0 4.27408,-4.273483 4.2737087,4.2737087 0 0 0 -4.27408,-4.274077 z m 0,2.648548 a 1.6252273,1.6252273 0 0 1 1.62553,1.625529 1.6252273,1.6252273 0 0 1 -1.62553,1.624935 1.6252273,1.6252273 0 0 1 -1.62493,-1.624935 1.6252273,1.6252273 0 0 1 1.62493,-1.625529 z" />
    <path
       style="fill:#eab832;fill-opacity:1;stroke-width:0.570291"
       d="m 26.866597,52.929754 c -2.21306,5.047779 -7.79123,13.450679 -11.381211,19.489401 -2.846496,4.788102 -4.789162,7.390976 -2.284522,11.858026 3.150284,4.500903 8.656989,3.644798 11.468832,3.644798 3.675746,0 21.233798,0.0023 21.233798,0.0023 l -0.0602,-4.460538 -23.204608,-0.284106 c 0,0 -2.483847,0.167224 -3.962314,-1.829374 -1.117445,-1.509055 -0.123723,-4.144005 0.635526,-5.268701 4.129071,-6.116455 12.091864,-19.456096 12.091864,-19.456096 z"
       id="path1969-6"
       sodipodi:nodetypes="cscscccsscc" />
    <path
       id="path6885-5-9-1-7-9"
       style="fill:#6c6783;fill-opacity:1;stroke-width:0.175648"
       d="m 121.36333,59.370246 a 2.421973,2.5088881 0 0 0 -2.42185,2.509104 2.421973,2.5088881 0 0 0 2.42185,2.508756 2.421973,2.5088881 0 0 0 2.42217,-2.508756 2.421973,2.5088881 0 0 0 -2.42217,-2.509104 z m 0,1.554834 a 0.92103998,0.95409249 0 0 1 0.9212,0.95427 0.92103998,0.95409249 0 0 1 -0.9212,0.953922 0.92103998,0.95409249 0 0 1 -0.92088,-0.953922 0.92103998,0.95409249 0 0 1 0.92088,-0.95427 z" />
    <path
       id="path6885-5-9-1-7-9-3"
       style="fill:#6c6783;fill-opacity:1;stroke-width:0.175648"
       d="m 146.32909,50.712645 a 2.421973,2.5088881 0 0 0 -2.42185,2.509104 2.421973,2.5088881 0 0 0 2.42185,2.508756 2.421973,2.5088881 0 0 0 2.42217,-2.508756 2.421973,2.5088881 0 0 0 -2.42217,-2.509104 z m 0,1.554834 a 0.92103998,0.95409249 0 0 1 0.9212,0.95427 0.92103998,0.95409249 0 0 1 -0.9212,0.953922 0.92103998,0.95409249 0 0 1 -0.92088,-0.953922 0.92103998,0.95409249 0 0 1 0.92088,-0.95427 z" />
    <path
       id="path6885-5-9-1-7-9-6"
       style="fill:#6c6783;fill-opacity:1;stroke-width:0.175648"
       d="m 67.46776,60.976085 a 2.421973,2.5088881 0 0 0 -2.42185,2.509104 2.421973,2.5088881 0 0 0 2.42185,2.508756 2.421973,2.5088881 0 0 0 2.42217,-2.508756 2.421973,2.5088881 0 0 0 -2.42217,-2.509104 z m 0,1.554834 a 0.92103998,0.95409249 0 0 1 0.9212,0.95427 0.92103998,0.95409249 0 0 1 -0.9212,0.953922 0.92103998,0.95409249 0 0 1 -0.92088,-0.953922 0.92103998,0.95409249 0 0 1 0.92088,-0.95427 z" />
  </g>
</svg>
