<?xml version="1.0" encoding="UTF-8" standalone="no"?>
<!-- Created with Inkscape (http://www.inkscape.org/) -->

<svg
   width="1000"
   height="250"
   viewBox="0 0 264.58333 66.145832"
   version="1.1"
   id="svg5"
   inkscape:version="1.2.2 (b0a8486541, 2022-12-01)"
   sodipodi:docname="header.svg"
   xmlns:inkscape="http://www.inkscape.org/namespaces/inkscape"
   xmlns:sodipodi="http://sodipodi.sourceforge.net/DTD/sodipodi-0.dtd"
   xmlns="http://www.w3.org/2000/svg"
   xmlns:svg="http://www.w3.org/2000/svg">
  <sodipodi:namedview
     id="namedview7"
     pagecolor="#ffffff"
     bordercolor="#000000"
     borderopacity="0.25"
     inkscape:showpageshadow="2"
     inkscape:pageopacity="0.0"
     inkscape:pagecheckerboard="0"
     inkscape:deskcolor="#d1d1d1"
     inkscape:document-units="mm"
     showgrid="false"
     inkscape:zoom="1"
     inkscape:cx="449"
     inkscape:cy="155.5"
     inkscape:window-width="1854"
     inkscape:window-height="1011"
     inkscape:window-x="66"
     inkscape:window-y="32"
     inkscape:window-maximized="1"
     inkscape:current-layer="layer1" />
  <defs
     id="defs2" />
  <g
     inkscape:label="Layer 1"
     inkscape:groupmode="layer"
     id="layer1">
    <path
       style="fill:#eab832;fill-opacity:1;stroke-width:0.366172"
       d="m 157.3316,32.441075 c -1.42096,-3.241068 -5.00258,-8.636387 -7.30762,-12.513718 -1.82767,-3.074335 -3.07502,-4.745585 -1.46684,-7.613779 2.02272,-2.889931 5.55846,-2.340245 7.36388,-2.340245 2.36012,0 13.63377,-0.0015 13.63377,-0.0015 l -0.0386,2.864014 -14.89919,0.182419 c 0,0 -1.59482,-0.107372 -2.54411,1.174601 -0.71749,0.968931 -0.0794,2.660774 0.40806,3.382917 2.65119,3.927242 7.76392,12.492333 7.76392,12.492333 z"
       id="path1969"
       sodipodi:nodetypes="cscscccsscc" />
    <text
       xml:space="preserve"
       style="font-size:29.2938px;fill:#eab832;fill-opacity:1;stroke-width:0.366172"
       x="172.88255"
       y="43.337765"
       id="text2216"><tspan
         id="tspan2214"
         style="font-style:normal;font-variant:normal;font-weight:normal;font-stretch:normal;font-size:29.2938px;font-family:'DejaVu Math TeX Gyre';-inkscape-font-specification:'DejaVu Math TeX Gyre';fill:#6c6783;fill-opacity:1;stroke-width:0.366172"
         x="172.88255"
         y="43.337765"
         sodipodi:role="line">ther</tspan></text>
    <path
       id="path6885-5-9-1-7-9-0"
       style="fill:#6c6783;fill-opacity:1;stroke-width:0.11278"
       d="m 184.23505,27.342815 a 1.5550959,1.6109022 0 0 0 -1.55501,1.61104 1.5550959,1.6109022 0 0 0 1.55501,1.610818 1.5550959,1.6109022 0 0 0 1.55523,-1.610818 1.5550959,1.6109022 0 0 0 -1.55523,-1.61104 z m 0,0.998325 a 0.59137963,0.61260192 0 0 1 0.59149,0.612715 0.59137963,0.61260192 0 0 1 -0.59149,0.612494 0.59137963,0.61260192 0 0 1 -0.59127,-0.612494 0.59137963,0.61260192 0 0 1 0.59127,-0.612715 z" />
    <path
       id="path6885-5-9-1-7-9-0-6"
       style="fill:#6c6783;fill-opacity:1;stroke-width:0.11278"
       d="m 185.09135,20.258067 a 1.5550959,1.6109022 0 0 0 -1.55501,1.611041 1.5550959,1.6109022 0 0 0 1.55501,1.610817 1.5550959,1.6109022 0 0 0 1.55523,-1.610817 1.5550959,1.6109022 0 0 0 -1.55523,-1.611041 z m 0,0.998325 a 0.59137963,0.61260192 0 0 1 0.59149,0.612716 0.59137963,0.61260192 0 0 1 -0.59149,0.612492 0.59137963,0.61260192 0 0 1 -0.59127,-0.612492 0.59137963,0.61260192 0 0 1 0.59127,-0.612716 z" />
    <path
       id="path6885-5-9-1-7-9-0-6-2"
       style="fill:#6c6783;fill-opacity:1;stroke-width:0.11278"
       d="m 203.27994,40.986513 a 1.5550959,1.6109022 0 0 0 -1.55502,1.611041 1.5550959,1.6109022 0 0 0 1.55502,1.610817 1.5550959,1.6109022 0 0 0 1.55522,-1.610817 1.5550959,1.6109022 0 0 0 -1.55522,-1.611041 z m 0,0.998325 a 0.59137963,0.61260192 0 0 1 0.59148,0.612716 0.59137963,0.61260192 0 0 1 -0.59148,0.612492 0.59137963,0.61260192 0 0 1 -0.59128,-0.612492 0.59137963,0.61260192 0 0 1 0.59128,-0.612716 z" />
    <path
       id="path6885"
       style="opacity:1;fill:#eab832;fill-opacity:1;stroke-width:0.169883"
       d="m 170.64645,9.007314 a 2.3841315,2.3841315 0 0 0 -2.384,2.384337 2.3841315,2.3841315 0 0 0 2.384,2.384006 2.3841315,2.3841315 0 0 0 2.38434,-2.384006 2.3841315,2.3841315 0 0 0 -2.38434,-2.384337 z m 0,1.477519 a 0.90664942,0.90664942 0 0 1 0.90682,0.906818 0.90664942,0.90664942 0 0 1 -0.90682,0.906486 0.90664942,0.90664942 0 0 1 -0.90649,-0.906486 0.90664942,0.90664942 0 0 1 0.90649,-0.906818 z" />
    <path
       style="fill:#eab832;fill-opacity:1;stroke-width:0.366172"
       d="m 157.33405,32.359857 c -1.42096,3.241068 -5.00259,8.636387 -7.30763,12.513718 -1.82767,3.074336 -3.07501,4.745585 -1.46684,7.613779 2.02272,2.889932 5.55846,2.340245 7.36388,2.340245 2.36012,0 13.63376,0.0015 13.63376,0.0015 l -0.0386,-2.864014 -14.89917,-0.182417 c 0,0 -1.59483,0.10737 -2.54412,-1.174602 -0.71749,-0.968931 -0.0794,-2.660775 0.40806,-3.382918 2.65119,-3.927242 7.76392,-12.492333 7.76392,-12.492333 z"
       id="path1969-6"
       sodipodi:nodetypes="cscscccsscc" />
    <path
       id="path6885-2"
       style="fill:#eab832;fill-opacity:1;stroke-width:0.169883"
       d="m 170.64888,55.793618 a 2.3841315,2.3841315 0 0 1 -2.384,-2.384337 2.3841315,2.3841315 0 0 1 2.384,-2.384005 2.3841315,2.3841315 0 0 1 2.38435,2.384005 2.3841315,2.3841315 0 0 1 -2.38435,2.384337 z m 0,-1.477519 a 0.90664942,0.90664942 0 0 0 0.90682,-0.906818 0.90664942,0.90664942 0 0 0 -0.90682,-0.906485 0.90664942,0.90664942 0 0 0 -0.90648,0.906485 0.90664942,0.90664942 0 0 0 0.90648,0.906818 z" />
    <path
       id="path6885-5"
       style="opacity:1;fill:#eab832;fill-opacity:1;stroke-width:0.169883"
       d="m 159.73305,30.017385 a 2.3841315,2.3841315 0 0 0 -2.38401,2.384338 2.3841315,2.3841315 0 0 0 2.38401,2.384005 2.3841315,2.3841315 0 0 0 2.38433,-2.384005 2.3841315,2.3841315 0 0 0 -2.38433,-2.384338 z m 0,1.47752 a 0.90664942,0.90664942 0 0 1 0.90681,0.906818 0.90664942,0.90664942 0 0 1 -0.90681,0.906486 0.90664942,0.90664942 0 0 1 -0.90649,-0.906486 0.90664942,0.90664942 0 0 1 0.90649,-0.906818 z" />
    <path
       id="path6885-5-9-1-7-9"
       style="fill:#6c6783;fill-opacity:1;stroke-width:0.11278"
       d="m 218.00833,36.495157 a 1.5550959,1.6109022 0 0 0 -1.55501,1.61104 1.5550959,1.6109022 0 0 0 1.55501,1.610818 1.5550959,1.6109022 0 0 0 1.55522,-1.610818 1.5550959,1.6109022 0 0 0 -1.55522,-1.61104 z m 0,0.998324 a 0.59137963,0.61260192 0 0 1 0.59148,0.612716 0.59137963,0.61260192 0 0 1 -0.59148,0.612492 0.59137963,0.61260192 0 0 1 -0.59127,-0.612492 0.59137963,0.61260192 0 0 1 0.59127,-0.612716 z" />
    <path
       id="path6885-5-9-1-7-9-3"
       style="fill:#6c6783;fill-opacity:1;stroke-width:0.11278"
       d="m 234.0383,30.9363 a 1.5550959,1.6109022 0 0 0 -1.55502,1.611041 1.5550959,1.6109022 0 0 0 1.55502,1.610818 1.5550959,1.6109022 0 0 0 1.55522,-1.610818 1.5550959,1.6109022 0 0 0 -1.55522,-1.611041 z m 0,0.998325 a 0.59137963,0.61260192 0 0 1 0.59148,0.612716 0.59137963,0.61260192 0 0 1 -0.59148,0.612492 0.59137963,0.61260192 0 0 1 -0.59128,-0.612492 0.59137963,0.61260192 0 0 1 0.59128,-0.612716 z" />
    <path
       id="path6885-5-9-1-7-9-6"
       style="fill:#6c6783;fill-opacity:1;stroke-width:0.11278"
       d="m 183.40317,37.52623 a 1.5550959,1.6109022 0 0 0 -1.55502,1.611041 1.5550959,1.6109022 0 0 0 1.55502,1.610818 1.5550959,1.6109022 0 0 0 1.55521,-1.610818 1.5550959,1.6109022 0 0 0 -1.55521,-1.611041 z m 0,0.998325 a 0.59137963,0.61260192 0 0 1 0.59147,0.612716 0.59137963,0.61260192 0 0 1 -0.59147,0.612493 0.59137963,0.61260192 0 0 1 -0.59128,-0.612493 0.59137963,0.61260192 0 0 1 0.59128,-0.612716 z" />
    <text
       xml:space="preserve"
       style="font-style:normal;font-variant:normal;font-weight:normal;font-stretch:normal;font-size:7.40833px;font-family:'DejaVu Math TeX Gyre';-inkscape-font-specification:'DejaVu Math TeX Gyre';opacity:1;fill:#6c6783;fill-opacity:1;stroke-width:0.264583"
       x="32.634243"
       y="18.719837"
       id="text12696"><tspan
         sodipodi:role="line"
         id="tspan12694"
         style="font-style:normal;font-variant:normal;font-weight:normal;font-stretch:normal;font-size:7.40833px;font-family:monospace;-inkscape-font-specification:monospace;stroke-width:0.264583"
         x="32.634243"
         y="18.719837">The</tspan></text>
    <text
       xml:space="preserve"
       style="font-style:normal;font-variant:normal;font-weight:normal;font-stretch:normal;font-size:21.1667px;font-family:'DejaVu Math TeX Gyre';-inkscape-font-specification:'DejaVu Math TeX Gyre';opacity:1;fill:#6c6783;fill-opacity:1;stroke-width:1.465;stroke-dasharray:none"
       x="63.773781"
       y="37.18689"
       id="text12700"><tspan
         sodipodi:role="line"
         id="tspan12698"
         style="font-style:normal;font-variant:normal;font-weight:normal;font-stretch:normal;font-family:monospace;-inkscape-font-specification:monospace;stroke-width:1.465;stroke-dasharray:none"
         x="63.773781"
         y="37.18689">Ray</tspan></text>
    <text
       xml:space="preserve"
       style="font-style:normal;font-variant:normal;font-weight:normal;font-stretch:normal;font-size:21.1667px;font-family:'DejaVu Math TeX Gyre';-inkscape-font-specification:'DejaVu Math TeX Gyre';opacity:1;fill:#6c6783;fill-opacity:1;stroke-width:1.465;stroke-dasharray:none"
       x="107.78701"
       y="49.458641"
       id="text12704"><tspan
         sodipodi:role="line"
         id="tspan12702"
         style="stroke-width:1.465"
         x="107.78701"
         y="49.458641" /></text>
    <text
       xml:space="preserve"
       style="font-style:normal;font-variant:normal;font-weight:normal;font-stretch:normal;font-size:7.40833px;font-family:'DejaVu Math TeX Gyre';-inkscape-font-specification:'DejaVu Math TeX Gyre';opacity:1;fill:#6c6783;fill-opacity:1;stroke-width:1.465;stroke-dasharray:none"
       x="32.53072"
       y="48.240742"
       id="text12708"><tspan
         sodipodi:role="line"
         id="tspan12706"
         style="font-style:normal;font-variant:normal;font-weight:normal;font-stretch:normal;font-size:7.40833px;font-family:monospace;-inkscape-font-specification:monospace;stroke-width:1.465"
         x="32.53072"
         y="48.240742">Programming Language</tspan></text>
    <path
       id="path281"
       style="fill:#eab832;fill-opacity:1;stroke-width:0.0443967"
       d="m 40.094322,21.585794 a 8.259298,8.259298 0 0 0 -8.259329,8.259337 8.259298,8.259298 0 0 0 8.259329,8.259246 8.259298,8.259298 0 0 0 8.259336,-8.259246 8.259298,8.259298 0 0 0 -8.259336,-8.259337 z m 0,2.927549 a 5.3318058,5.3318058 0 0 1 5.331796,5.331788 5.3318058,5.3318058 0 0 1 -5.331796,5.331788 5.3318058,5.3318058 0 0 1 -5.331788,-5.331788 5.3318058,5.3318058 0 0 1 5.331788,-5.331788 z" />
    <rect
       style="fill:#eab832;fill-opacity:1;stroke-width:0.0423191"
       id="rect2690"
       width="13.530012"
       height="2.7715914"
       x="47.380173"
       y="28.459291" />
    <text
       xml:space="preserve"
       style="font-style:normal;font-variant:normal;font-weight:normal;font-stretch:normal;font-size:7.40833px;font-family:monospace;-inkscape-font-specification:monospace;opacity:1;fill:#6c6783;fill-opacity:1;stroke-width:1.465;stroke-dasharray:none"
       x="129.02455"
       y="35.57732"
       id="text13504"><tspan
         sodipodi:role="line"
         id="tspan13502"
         style="stroke-width:1.465"
         x="129.02455"
         y="35.57732">&amp;</tspan></text>
  </g>
</svg>
