<?xml version="1.0" encoding="UTF-8" standalone="no"?>
<!-- Created with Inkscape (http://www.inkscape.org/) -->

<svg
   width="1000"
   height="250"
   viewBox="0 0 264.58333 66.145832"
   version="1.1"
   id="svg5"
   inkscape:version="1.2.2 (b0a8486541, 2022-12-01)"
   sodipodi:docname="header.svg"
   xmlns:inkscape="http://www.inkscape.org/namespaces/inkscape"
   xmlns:sodipodi="http://sodipodi.sourceforge.net/DTD/sodipodi-0.dtd"
   xmlns="http://www.w3.org/2000/svg"
   xmlns:svg="http://www.w3.org/2000/svg">
  <sodipodi:namedview
     id="namedview7"
     pagecolor="#ffffff"
     bordercolor="#000000"
     borderopacity="0.25"
     inkscape:showpageshadow="2"
     inkscape:pageopacity="0.0"
     inkscape:pagecheckerboard="0"
     inkscape:deskcolor="#d1d1d1"
     inkscape:document-units="mm"
     showgrid="false"
     inkscape:zoom="2"
     inkscape:cx="240.5"
     inkscape:cy="182.25"
     inkscape:window-width="1854"
     inkscape:window-height="1011"
     inkscape:window-x="66"
     inkscape:window-y="32"
     inkscape:window-maximized="1"
     inkscape:current-layer="layer1" />
  <defs
     id="defs2" />
  <g
     inkscape:label="Layer 1"
     inkscape:groupmode="layer"
     id="layer1">
    <g
       aria-label="The"
       id="text12696"
       style="font-size:7.40833px;font-family:'DejaVu Math TeX Gyre';-inkscape-font-specification:'DejaVu Math TeX Gyre';opacity:1;fill:#6c6783;stroke-width:0.264583">
      <path
         d="m 32.804258,13.319136 h 4.12016 v 0.614949 h -1.689301 v 4.785752 h -0.734322 v -4.785752 h -1.696537 z"
         style="font-family:monospace;-inkscape-font-specification:monospace"
         id="path4068" />
      <path
         d="m 40.896267,16.209397 v 2.51044 h -0.669209 v -2.51044 q 0,-0.546219 -0.19172,-0.803051 -0.191719,-0.256832 -0.60048,-0.256832 -0.466638,0 -0.719852,0.332796 -0.249597,0.329179 -0.249597,0.947746 v 2.289781 h -0.665592 v -5.628594 h 0.665592 v 2.184878 q 0.17725,-0.347265 0.481107,-0.524515 0.303858,-0.180868 0.719853,-0.180868 0.618566,0 0.922424,0.408761 0.307474,0.405143 0.307474,1.229898 z"
         style="font-family:monospace;-inkscape-font-specification:monospace"
         id="path4070" />
      <path
         d="m 45.577116,16.527724 v 0.325561 h -2.883027 v 0.0217 q 0,0.661975 0.343648,1.02371 0.347266,0.361735 0.976685,0.361735 0.318326,0 0.665592,-0.101286 0.347265,-0.101286 0.741556,-0.307474 v 0.661974 q -0.379821,0.155546 -0.734322,0.231511 -0.350882,0.07958 -0.680061,0.07958 -0.944128,0 -1.475878,-0.564306 -0.531751,-0.567924 -0.531751,-1.562695 0,-0.969449 0.520899,-1.548225 0.520898,-0.578776 1.389062,-0.578776 0.774112,0 1.219046,0.524516 0.448551,0.524515 0.448551,1.43247 z m -0.665592,-0.195337 q -0.01447,-0.58601 -0.278536,-0.889868 -0.260449,-0.307474 -0.752408,-0.307474 -0.481108,0 -0.7922,0.318326 -0.311092,0.318327 -0.368969,0.882633 z"
         style="font-family:monospace;-inkscape-font-specification:monospace"
         id="path4072" />
    </g>
    <g
       aria-label="Ray"
       id="text12700"
       style="font-size:21.1667px;font-family:'DejaVu Math TeX Gyre';-inkscape-font-specification:'DejaVu Math TeX Gyre';opacity:1;fill:#6c6783;stroke-width:1.465">
      <path
         d="m 71.628611,29.900501 q 0.806154,0.206706 1.374595,0.785483 0.568442,0.568442 1.415937,2.284102 l 2.098066,4.216804 h -2.24276 L 72.434765,33.29048 Q 71.638946,31.626497 70.998158,31.151073 70.367704,30.665314 69.344509,30.665314 H 67.349796 V 37.18689 H 65.251729 V 21.756282 h 4.299486 q 2.542485,0 3.896409,1.147219 1.353925,1.147219 1.353925,3.317632 0,1.529625 -0.83716,2.501144 -0.826824,0.961183 -2.335778,1.178224 z m -4.278815,-6.428558 v 5.47771 h 2.284102 q 1.498618,0 2.232425,-0.671794 0.733807,-0.671795 0.733807,-2.056726 0,-1.333254 -0.785484,-2.036054 -0.775147,-0.713136 -2.263431,-0.713136 z"
         style="font-family:monospace;-inkscape-font-specification:monospace"
         id="path4075" />
      <path
         d="m 83.772592,31.368114 h -0.630454 q -1.663984,0 -2.511478,0.589112 -0.83716,0.578777 -0.83716,1.736331 0,1.043866 0.630454,1.622643 0.630453,0.578777 1.746666,0.578777 1.570966,0 2.470137,-1.085207 0.899171,-1.095542 0.909507,-3.017908 v -0.423748 z m 3.689703,-0.785483 v 6.604259 h -1.912031 v -1.715661 q -0.609783,1.033531 -1.53996,1.529625 -0.919842,0.485759 -2.242761,0.485759 -1.767337,0 -2.821538,-0.992189 -1.054201,-1.002524 -1.054201,-2.676843 0,-1.932702 1.291913,-2.935226 1.302248,-1.002525 3.813727,-1.002525 h 2.55282 v -0.299723 q -0.01034,-1.384931 -0.702801,-2.005049 -0.692465,-0.630454 -2.211755,-0.630454 -0.971518,0 -1.963707,0.279054 -0.992189,0.279053 -1.932702,0.816489 v -1.901696 q 1.054201,-0.403077 2.015384,-0.599448 0.971519,-0.206706 1.881025,-0.206706 1.436607,0 2.449467,0.423748 1.023195,0.423747 1.653649,1.271242 0.392741,0.516765 0.558106,1.281577 0.165365,0.754478 0.165365,2.273767 z"
         style="font-family:monospace;-inkscape-font-specification:monospace"
         id="path4077" />
      <path
         d="m 98.128327,33.466181 q -0.475424,1.20923 -1.20923,3.183273 -1.023195,2.72852 -1.374596,3.327967 -0.475423,0.806154 -1.188559,1.209231 -0.713136,0.403077 -1.663984,0.403077 h -1.529625 v -1.591637 h 1.126548 q 0.83716,0 1.312584,-0.485759 0.475423,-0.485759 1.20923,-2.511479 L 90.335509,25.61135 h 2.015384 l 3.43132,9.053726 3.379644,-9.053726 h 2.015383 z"
         style="font-family:monospace;-inkscape-font-specification:monospace"
         id="path4079" />
    </g>
    <text
       xml:space="preserve"
       style="font-style:normal;font-variant:normal;font-weight:normal;font-stretch:normal;font-size:21.1667px;font-family:'DejaVu Math TeX Gyre';-inkscape-font-specification:'DejaVu Math TeX Gyre';opacity:1;fill:#6c6783;fill-opacity:1;stroke-width:1.465;stroke-dasharray:none"
       x="107.78701"
       y="49.458641"
       id="text12704"><tspan
         sodipodi:role="line"
         id="tspan12702"
         style="stroke-width:1.465"
         x="107.78701"
         y="49.458641" /></text>
    <g
       aria-label="Programming Language"
       id="text12708"
       style="font-size:7.40833px;font-family:'DejaVu Math TeX Gyre';-inkscape-font-specification:'DejaVu Math TeX Gyre';opacity:1;fill:#6c6783;stroke-width:1.465">
      <path
         d="m 33.974042,43.44052 v 2.029333 h 0.846459 q 0.506429,0 0.788582,-0.267684 0.285771,-0.267684 0.285771,-0.748791 0,-0.481108 -0.282153,-0.745174 -0.282153,-0.267684 -0.7922,-0.267684 z m -0.730705,-0.60048 h 1.577164 q 0.904338,0 1.370976,0.412378 0.466638,0.40876 0.466638,1.20096 0,0.799434 -0.466638,1.208194 -0.463021,0.408761 -1.370976,0.408761 h -0.846459 v 2.170409 h -0.730705 z"
         style="font-family:monospace;-inkscape-font-specification:monospace"
         id="path4085" />
      <path
         d="m 41.168948,45.024919 q -0.213423,-0.166398 -0.434082,-0.242363 -0.220658,-0.07596 -0.484724,-0.07596 -0.622184,0 -0.951363,0.390674 -0.329179,0.390673 -0.329179,1.128613 v 2.014863 H 38.300391 V 44.189311 H 38.9696 v 0.7922 q 0.166398,-0.430465 0.510046,-0.658358 0.347266,-0.23151 0.821139,-0.23151 0.245979,0 0.459403,0.0615 0.213423,0.0615 0.40876,0.191719 z"
         style="font-family:monospace;-inkscape-font-specification:monospace"
         id="path4087" />
      <path
         d="m 43.679388,44.655949 q -0.506429,0 -0.766878,0.394291 -0.260449,0.394291 -0.260449,1.168404 0,0.770495 0.260449,1.168403 0.260449,0.394291 0.766878,0.394291 0.510046,0 0.770495,-0.394291 0.260449,-0.397908 0.260449,-1.168403 0,-0.774113 -0.260449,-1.168404 -0.260449,-0.394291 -0.770495,-0.394291 z m 0,-0.564306 q 0.842842,0 1.287776,0.54622 0.448551,0.546219 0.448551,1.580781 0,1.038179 -0.444933,1.584399 -0.444934,0.542602 -1.291394,0.542602 -0.842842,0 -1.287776,-0.542602 -0.444934,-0.54622 -0.444934,-1.584399 0,-1.034562 0.444934,-1.580781 0.444934,-0.54622 1.287776,-0.54622 z"
         style="font-family:monospace;-inkscape-font-specification:monospace"
         id="path4089" />
      <path
         d="m 49.014977,46.18247 q 0,-0.748791 -0.24598,-1.135847 -0.242362,-0.390674 -0.709,-0.390674 -0.488342,0 -0.745174,0.390674 -0.256831,0.387056 -0.256831,1.135847 0,0.748792 0.256831,1.143083 0.260449,0.390673 0.752409,0.390673 0.459403,0 0.701765,-0.394291 0.24598,-0.394291 0.24598,-1.139465 z m 0.665592,1.797823 q 0,0.911571 -0.430464,1.381827 -0.430465,0.470255 -1.266072,0.470255 -0.274919,0 -0.575159,-0.05064 -0.30024,-0.05064 -0.600479,-0.148311 v -0.658358 q 0.3545,0.166399 0.643888,0.24598 0.289387,0.07958 0.53175,0.07958 0.538985,0 0.784964,-0.293005 0.24598,-0.293006 0.24598,-0.929659 v -0.02894 -0.452168 q -0.159163,0.34003 -0.434082,0.506428 -0.274918,0.166399 -0.669209,0.166399 -0.709,0 -1.13223,-0.567924 -0.42323,-0.567924 -0.42323,-1.519287 0,-0.95498 0.42323,-1.522903 0.42323,-0.567924 1.13223,-0.567924 0.390674,0 0.661975,0.155546 0.271301,0.155546 0.441316,0.481107 v -0.524515 h 0.665592 z"
         style="font-family:monospace;-inkscape-font-specification:monospace"
         id="path4091" />
      <path
         d="m 54.54952,45.024919 q -0.213423,-0.166398 -0.434081,-0.242363 -0.220659,-0.07596 -0.484725,-0.07596 -0.622184,0 -0.951363,0.390674 -0.329178,0.390673 -0.329178,1.128613 v 2.014863 h -0.66921 v -4.051431 h 0.66921 v 0.7922 q 0.166398,-0.430465 0.510046,-0.658358 0.347265,-0.23151 0.821138,-0.23151 0.24598,0 0.459403,0.0615 0.213424,0.0615 0.40876,0.191719 z"
         style="font-family:monospace;-inkscape-font-specification:monospace"
         id="path4093" />
      <path
         d="m 57.371051,46.204174 h -0.220658 q -0.582393,0 -0.879016,0.206189 -0.293005,0.202572 -0.293005,0.607715 0,0.365352 0.220658,0.567924 0.220659,0.202571 0.611332,0.202571 0.549837,0 0.864547,-0.379821 0.314709,-0.383439 0.318326,-1.056266 v -0.148312 z m 1.291394,-0.274918 v 2.311486 h -0.66921 v -0.60048 q -0.213423,0.361735 -0.538985,0.535367 -0.321944,0.170016 -0.784964,0.170016 -0.618567,0 -0.987536,-0.347266 -0.36897,-0.350882 -0.36897,-0.936893 0,-0.676444 0.452169,-1.027327 0.455786,-0.350883 1.334801,-0.350883 h 0.893485 v -0.104903 q -0.0036,-0.484725 -0.245979,-0.701765 -0.242363,-0.220659 -0.774113,-0.220659 -0.340031,0 -0.687296,0.09767 -0.347266,0.09767 -0.676444,0.28577 v -0.665592 q 0.368969,-0.141077 0.705383,-0.209806 0.34003,-0.07235 0.658357,-0.07235 0.502812,0 0.857312,0.148311 0.358117,0.148311 0.578775,0.444934 0.13746,0.180867 0.195337,0.448551 0.05788,0.264067 0.05788,0.795817 z"
         style="font-family:monospace;-inkscape-font-specification:monospace"
         id="path4095" />
      <path
         d="m 61.737192,44.601689 q 0.12299,-0.260449 0.311092,-0.383439 0.19172,-0.126607 0.459403,-0.126607 0.488342,0 0.687297,0.379821 0.202571,0.376205 0.202571,1.421618 v 2.34766 h -0.607714 v -2.318721 q 0,-0.857311 -0.09767,-1.0635 -0.09405,-0.209806 -0.347265,-0.209806 -0.289388,0 -0.397909,0.224275 -0.104903,0.220658 -0.104903,1.049031 v 2.318721 h -0.607714 v -2.318721 q 0,-0.868163 -0.104904,-1.070735 -0.101285,-0.202571 -0.368969,-0.202571 -0.264067,0 -0.36897,0.224275 -0.101285,0.220658 -0.101285,1.049031 v 2.318721 h -0.604098 v -4.051431 h 0.604098 v 0.347266 q 0.119372,-0.217041 0.296622,-0.329179 0.180868,-0.115755 0.408761,-0.115755 0.274918,0 0.455786,0.126607 0.184484,0.126607 0.28577,0.383439 z"
         style="font-family:monospace;-inkscape-font-specification:monospace"
         id="path4097" />
      <path
         d="m 66.197384,44.601689 q 0.12299,-0.260449 0.311092,-0.383439 0.191719,-0.126607 0.459403,-0.126607 0.488342,0 0.687296,0.379821 0.202572,0.376205 0.202572,1.421618 v 2.34766 h -0.607715 v -2.318721 q 0,-0.857311 -0.09767,-1.0635 -0.09405,-0.209806 -0.347266,-0.209806 -0.289388,0 -0.397908,0.224275 -0.104903,0.220658 -0.104903,1.049031 v 2.318721 h -0.607715 v -2.318721 q 0,-0.868163 -0.104903,-1.070735 -0.101286,-0.202571 -0.368969,-0.202571 -0.264067,0 -0.36897,0.224275 -0.101286,0.220658 -0.101286,1.049031 v 2.318721 h -0.604097 v -4.051431 h 0.604097 v 0.347266 q 0.119373,-0.217041 0.296623,-0.329179 0.180867,-0.115755 0.40876,-0.115755 0.274919,0 0.455786,0.126607 0.184485,0.126607 0.285771,0.383439 z"
         style="font-family:monospace;-inkscape-font-specification:monospace"
         id="path4099" />
      <path
         d="m 69.138287,44.189311 h 1.703771 v 3.53415 h 1.320333 v 0.517281 h -3.306257 v -0.517281 h 1.320332 v -3.016869 h -1.038179 z m 1.038179,-1.577164 h 0.665592 v 0.842843 h -0.665592 z"
         style="font-family:monospace;-inkscape-font-specification:monospace"
         id="path4101" />
      <path
         d="m 76.474269,45.730302 v 2.51044 H 75.80506 v -2.51044 q 0,-0.54622 -0.19172,-0.803052 -0.191719,-0.256831 -0.60048,-0.256831 -0.466638,0 -0.719852,0.332796 -0.249597,0.329178 -0.249597,0.947745 v 2.289782 h -0.665592 v -4.051431 h 0.665592 v 0.607715 q 0.17725,-0.347266 0.481107,-0.524516 0.303858,-0.180867 0.719853,-0.180867 0.618566,0 0.922424,0.40876 0.307474,0.405143 0.307474,1.229899 z"
         style="font-family:monospace;-inkscape-font-specification:monospace"
         id="path4103" />
      <path
         d="m 80.236311,46.18247 q 0,-0.748791 -0.24598,-1.135847 -0.242362,-0.390674 -0.709,-0.390674 -0.488342,0 -0.745174,0.390674 -0.256832,0.387056 -0.256832,1.135847 0,0.748792 0.256832,1.143083 0.260449,0.390673 0.752408,0.390673 0.459404,0 0.701766,-0.394291 0.24598,-0.394291 0.24598,-1.139465 z m 0.665592,1.797823 q 0,0.911571 -0.430465,1.381827 -0.430464,0.470255 -1.266072,0.470255 -0.274918,0 -0.575158,-0.05064 -0.30024,-0.05064 -0.60048,-0.148311 v -0.658358 q 0.3545,0.166399 0.643888,0.24598 0.289388,0.07958 0.53175,0.07958 0.538985,0 0.784965,-0.293005 0.24598,-0.293006 0.24598,-0.929659 v -0.02894 -0.452168 q -0.159164,0.34003 -0.434082,0.506428 -0.274919,0.166399 -0.66921,0.166399 -0.709,0 -1.13223,-0.567924 -0.42323,-0.567924 -0.42323,-1.519287 0,-0.95498 0.42323,-1.522903 0.42323,-0.567924 1.13223,-0.567924 0.390674,0 0.661975,0.155546 0.271301,0.155546 0.441317,0.481107 v -0.524515 h 0.665592 z"
         style="font-family:monospace;-inkscape-font-specification:monospace"
         id="path4105" />
      <path
         d="m 86.830739,42.84004 h 0.734322 v 4.785752 h 2.608108 v 0.61495 h -3.34243 z"
         style="font-family:monospace;-inkscape-font-specification:monospace"
         id="path4107" />
      <path
         d="m 93.052578,46.204174 h -0.220659 q -0.582393,0 -0.879015,0.206189 -0.293006,0.202572 -0.293006,0.607715 0,0.365352 0.220659,0.567924 0.220658,0.202571 0.611332,0.202571 0.549837,0 0.864546,-0.379821 0.314709,-0.383439 0.318327,-1.056266 v -0.148312 z m 1.291393,-0.274918 v 2.311486 h -0.669209 v -0.60048 q -0.213424,0.361735 -0.538985,0.535367 -0.321944,0.170016 -0.784965,0.170016 -0.618567,0 -0.987536,-0.347266 -0.36897,-0.350882 -0.36897,-0.936893 0,-0.676444 0.452169,-1.027327 0.455786,-0.350883 1.334801,-0.350883 h 0.893486 v -0.104903 q -0.0036,-0.484725 -0.24598,-0.701765 -0.242363,-0.220659 -0.774113,-0.220659 -0.340031,0 -0.687296,0.09767 -0.347265,0.09767 -0.676444,0.28577 v -0.665592 q 0.368969,-0.141077 0.705383,-0.209806 0.340031,-0.07235 0.658357,-0.07235 0.502812,0 0.857312,0.148311 0.358117,0.148311 0.578776,0.444934 0.137459,0.180867 0.195336,0.448551 0.05788,0.264067 0.05788,0.795817 z"
         style="font-family:monospace;-inkscape-font-specification:monospace"
         id="path4109" />
      <path
         d="m 98.775226,45.730302 v 2.51044 h -0.66921 v -2.51044 q 0,-0.54622 -0.191719,-0.803052 -0.19172,-0.256831 -0.60048,-0.256831 -0.466638,0 -0.719852,0.332796 -0.249597,0.329178 -0.249597,0.947745 v 2.289782 h -0.665593 v -4.051431 h 0.665593 v 0.607715 q 0.17725,-0.347266 0.481107,-0.524516 0.303857,-0.180867 0.719852,-0.180867 0.618567,0 0.922424,0.40876 0.307475,0.405143 0.307475,1.229899 z"
         style="font-family:monospace;-inkscape-font-specification:monospace"
         id="path4111" />
      <path
         d="m 102.53727,46.18247 q 0,-0.748791 -0.24598,-1.135847 -0.24236,-0.390674 -0.709,-0.390674 -0.48834,0 -0.74518,0.390674 -0.25683,0.387056 -0.25683,1.135847 0,0.748792 0.25683,1.143083 0.26045,0.390673 0.75241,0.390673 0.45941,0 0.70177,-0.394291 0.24598,-0.394291 0.24598,-1.139465 z m 0.66559,1.797823 q 0,0.911571 -0.43046,1.381827 -0.43047,0.470255 -1.26608,0.470255 -0.27492,0 -0.57516,-0.05064 -0.30024,-0.05064 -0.60048,-0.148311 v -0.658358 q 0.3545,0.166399 0.64389,0.24598 0.28939,0.07958 0.53175,0.07958 0.53899,0 0.78497,-0.293005 0.24598,-0.293006 0.24598,-0.929659 v -0.02894 -0.452168 q -0.15917,0.34003 -0.43408,0.506428 -0.27492,0.166399 -0.66921,0.166399 -0.709,0 -1.13223,-0.567924 -0.423234,-0.567924 -0.423234,-1.519287 0,-0.95498 0.423234,-1.522903 0.42323,-0.567924 1.13223,-0.567924 0.39067,0 0.66197,0.155546 0.2713,0.155546 0.44132,0.481107 v -0.524515 h 0.66559 z"
         style="font-family:monospace;-inkscape-font-specification:monospace"
         id="path4113" />
      <path
         d="m 104.59916,46.706986 v -2.51044 h 0.66559 v 2.51044 q 0,0.54622 0.19172,0.803051 0.19533,0.256832 0.60048,0.256832 0.47025,0 0.71985,-0.329179 0.2496,-0.332796 0.2496,-0.951362 v -2.289782 h 0.66921 v 4.044196 h -0.66921 v -0.607715 q -0.17725,0.350883 -0.48473,0.53175 -0.30386,0.180868 -0.71262,0.180868 -0.62218,0 -0.92604,-0.405143 -0.30385,-0.408761 -0.30385,-1.233516 z"
         style="font-family:monospace;-inkscape-font-specification:monospace"
         id="path4115" />
      <path
         d="m 110.89334,46.204174 h -0.22066 q -0.58239,0 -0.87901,0.206189 -0.29301,0.202572 -0.29301,0.607715 0,0.365352 0.22066,0.567924 0.22066,0.202571 0.61133,0.202571 0.54984,0 0.86455,-0.379821 0.31471,-0.383439 0.31832,-1.056266 v -0.148312 z m 1.29139,-0.274918 v 2.311486 h -0.66921 v -0.60048 q -0.21342,0.361735 -0.53898,0.535367 -0.32194,0.170016 -0.78496,0.170016 -0.61857,0 -0.98754,-0.347266 -0.36897,-0.350882 -0.36897,-0.936893 0,-0.676444 0.45217,-1.027327 0.45578,-0.350883 1.3348,-0.350883 h 0.89348 v -0.104903 q -0.004,-0.484725 -0.24598,-0.701765 -0.24236,-0.220659 -0.77411,-0.220659 -0.34003,0 -0.68729,0.09767 -0.34727,0.09767 -0.67645,0.28577 v -0.665592 q 0.36897,-0.141077 0.70538,-0.209806 0.34004,-0.07235 0.65836,-0.07235 0.50281,0 0.85731,0.148311 0.35812,0.148311 0.57878,0.444934 0.13746,0.180867 0.19534,0.448551 0.0579,0.264067 0.0579,0.795817 z"
         style="font-family:monospace;-inkscape-font-specification:monospace"
         id="path4117" />
      <path
         d="m 115.91784,46.18247 q 0,-0.748791 -0.24598,-1.135847 -0.24237,-0.390674 -0.709,-0.390674 -0.48835,0 -0.74518,0.390674 -0.25683,0.387056 -0.25683,1.135847 0,0.748792 0.25683,1.143083 0.26045,0.390673 0.75241,0.390673 0.4594,0 0.70177,-0.394291 0.24598,-0.394291 0.24598,-1.139465 z m 0.66559,1.797823 q 0,0.911571 -0.43047,1.381827 -0.43046,0.470255 -1.26607,0.470255 -0.27492,0 -0.57516,-0.05064 -0.30024,-0.05064 -0.60048,-0.148311 v -0.658358 q 0.3545,0.166399 0.64389,0.24598 0.28939,0.07958 0.53175,0.07958 0.53899,0 0.78497,-0.293005 0.24598,-0.293006 0.24598,-0.929659 v -0.02894 -0.452168 q -0.15917,0.34003 -0.43408,0.506428 -0.27492,0.166399 -0.66921,0.166399 -0.709,0 -1.13223,-0.567924 -0.42323,-0.567924 -0.42323,-1.519287 0,-0.95498 0.42323,-1.522903 0.42323,-0.567924 1.13223,-0.567924 0.39067,0 0.66197,0.155546 0.2713,0.155546 0.44132,0.481107 v -0.524515 h 0.66559 z"
         style="font-family:monospace;-inkscape-font-specification:monospace"
         id="path4119" />
      <path
         d="m 121.29683,46.048628 v 0.325562 h -2.88302 v 0.0217 q 0,0.661975 0.34364,1.02371 0.34727,0.361734 0.97669,0.361734 0.31833,0 0.66559,-0.101285 0.34727,-0.101286 0.74156,-0.307475 v 0.661975 q -0.37982,0.155546 -0.73432,0.23151 -0.35089,0.07958 -0.68007,0.07958 -0.94412,0 -1.47587,-0.564307 -0.53175,-0.567923 -0.53175,-1.562694 0,-0.96945 0.52089,-1.548225 0.5209,-0.578776 1.38907,-0.578776 0.77411,0 1.21904,0.524515 0.44855,0.524516 0.44855,1.43247 z m -0.66559,-0.195336 q -0.0145,-0.586011 -0.27853,-0.889868 -0.26045,-0.307475 -0.75241,-0.307475 -0.48111,0 -0.7922,0.318327 -0.31109,0.318327 -0.36897,0.882633 z"
         style="font-family:monospace;-inkscape-font-specification:monospace"
         id="path4121" />
    </g>
    <path
       id="path281"
       style="fill:#eab832;fill-opacity:1;stroke-width:0.0443967"
       d="m 40.094322,21.585794 a 8.259298,8.259298 0 0 0 -8.259329,8.259337 8.259298,8.259298 0 0 0 8.259329,8.259246 8.259298,8.259298 0 0 0 8.259336,-8.259246 8.259298,8.259298 0 0 0 -8.259336,-8.259337 z m 0,2.927549 a 5.3318058,5.3318058 0 0 1 5.331796,5.331788 5.3318058,5.3318058 0 0 1 -5.331796,5.331788 5.3318058,5.3318058 0 0 1 -5.331788,-5.331788 5.3318058,5.3318058 0 0 1 5.331788,-5.331788 z" />
    <rect
       style="fill:#eab832;fill-opacity:1;stroke-width:0.0423191"
       id="rect2690"
       width="13.530012"
       height="2.7715914"
       x="47.380173"
       y="28.459291" />
    <g
       aria-label="&amp;"
       id="text13504"
       style="font-size:7.40833px;font-family:monospace;-inkscape-font-specification:monospace;opacity:1;fill:#6c6783;stroke-width:1.465">
      <path
         d="m 131.00324,32.296385 1.50482,2.022098 q 0.14107,-0.17725 0.2098,-0.448551 0.0687,-0.271302 0.0687,-0.647506 0,-0.115755 -0.0108,-0.368969 l -0.004,-0.02532 h 0.59325 v 0.141077 q 0,0.582393 -0.13384,1.023709 -0.13384,0.4377 -0.40515,0.756026 l 0.61495,0.828373 h -0.77049 l -0.28215,-0.394291 q -0.30024,0.253215 -0.63666,0.376204 -0.33641,0.12299 -0.71985,0.12299 -0.78135,0 -1.29139,-0.484725 -0.51005,-0.488342 -0.51005,-1.226281 0,-0.495576 0.2496,-0.918806 0.24959,-0.42323 0.75241,-0.784965 -0.18087,-0.260449 -0.26769,-0.510046 -0.0868,-0.249597 -0.0868,-0.506429 0,-0.542602 0.35811,-0.857311 0.36174,-0.31471 0.98754,-0.31471 0.23513,0 0.47025,0.04341 0.23875,0.04341 0.49196,0.126608 v 0.661974 q -0.21342,-0.141076 -0.44131,-0.206188 -0.22428,-0.06873 -0.47388,-0.06873 -0.35088,0 -0.55345,0.166398 -0.20257,0.162781 -0.20257,0.441316 0,0.213424 0.1049,0.448552 0.10491,0.23151 0.38344,0.604097 z m -0.47387,0.376204 q -0.3328,0.264067 -0.4992,0.560689 -0.16278,0.293005 -0.16278,0.625802 0,0.546219 0.36174,0.907954 0.36173,0.358118 0.92242,0.358118 0.15193,0 0.31833,-0.04341 0.1664,-0.04341 0.32556,-0.126607 0.0977,-0.05426 0.15916,-0.09405 0.0651,-0.04341 0.12299,-0.09043 z"
         id="path4082" />
    </g>
    <path
       style="fill:#eab832;fill-opacity:1;stroke-width:0.366201"
       d="m 157.24574,33.570275 c -1.42108,-3.24133 -5.00299,-8.637084 -7.30822,-12.514728 -1.82782,-3.074584 -3.07526,-4.745968 -1.46696,-7.614394 2.02289,-2.890165 5.55891,-2.340435 7.36448,-2.340435 2.3603,0 13.63486,-0.0015 13.63486,-0.0015 l -0.0387,2.864245 -14.90037,0.182433 c 0,0 -1.59496,-0.10738 -2.54433,1.174696 -0.71754,0.969009 -0.0794,2.66099 0.4081,3.383191 2.6514,3.927559 7.76455,12.493342 7.76455,12.493342 z"
       id="path1969-7"
       sodipodi:nodetypes="cscscccsscc" />
    <g
       aria-label="ther"
       id="text2216-5"
       style="font-size:45.6234px;fill:#eab832;stroke-width:0.570291"
       transform="matrix(0.64212999,0,0,0.64212999,100.19997,-0.43900118)">
      <path
         d="m 131.0337,64.368141 q -0.18249,3.193639 -1.73369,4.744834 -1.68806,1.459949 -4.83608,1.459949 -3.55862,0 -5.01857,-1.551196 -1.45995,-1.688065 -1.45995,-5.337938 V 48.628068 h -3.60425 v -2.372417 h 3.60425 v -7.345368 h 4.10611 v 7.345368 h 7.71035 v 2.372417 h -7.71035 V 63.68379 q 0,3.011145 0.5931,3.87799 0.5931,0.821221 2.1443,0.821221 1.5512,0 2.32679,-0.958092 0.68435,-0.912468 0.7756,-3.056768 z"
         style="font-family:'DejaVu Math TeX Gyre';-inkscape-font-specification:'DejaVu Math TeX Gyre';fill:#6c6783"
         id="path1634" />
      <path
         d="m 159.45704,69.934196 h -11.3146 V 67.56178 h 3.55862 V 56.155929 q 0,-4.334223 -1.09496,-5.931042 -1.04934,-1.596819 -3.74112,-1.596819 -2.82865,0 -4.33422,2.053053 -1.50558,2.098676 -1.50558,6.067912 V 67.56178 h 3.55863 v 2.372416 H 133.22358 V 67.56178 h 3.6955 V 37.632828 h -3.92361 v -2.372417 h 8.02971 v 15.192593 q 1.18621,-2.463664 2.9199,-3.604249 1.82494,-1.231832 4.24298,-1.231832 3.96923,0 5.79417,2.235547 1.82494,2.326794 1.82494,7.026004 V 67.56178 h 3.64987 z"
         style="font-family:'DejaVu Math TeX Gyre';-inkscape-font-specification:'DejaVu Math TeX Gyre';fill:#6c6783"
         id="path1636" />
      <path
         d="m 180.62625,56.155929 q -0.13687,-4.106106 -1.73368,-6.250406 -1.64245,-2.098676 -4.65359,-2.098676 -2.87428,0 -4.4711,2.1443 -1.64244,2.098676 -1.9618,6.204782 z m 4.83608,2.372417 h -17.65625 v 0.182494 q 0,4.83608 1.77931,7.208497 1.82494,2.463664 5.33794,2.463664 2.7374,0 4.42547,-1.414326 1.73369,-1.459948 2.41804,-4.197353 h 3.28488 q -0.95809,3.87799 -3.60424,5.839796 -2.64616,1.961806 -6.93476,1.961806 -5.20107,0 -8.34908,-3.421755 -3.14802,-3.421755 -3.14802,-9.079057 0,-5.566055 3.10239,-9.033433 3.05677,-3.421756 8.12097,-3.421756 5.38356,0 8.25783,3.330509 2.9199,3.330508 2.96552,9.580914 z"
         style="font-family:'DejaVu Math TeX Gyre';-inkscape-font-specification:'DejaVu Math TeX Gyre';fill:#6c6783"
         id="path1638" />
      <path
         d="m 209.50585,52.14107 h -2.37241 q -0.0456,-1.733689 -0.95809,-2.646157 -0.86685,-0.866845 -2.55491,-0.866845 -3.05677,0 -4.60797,2.098676 -1.64244,2.1443 -1.64244,6.022289 V 67.56178 h 4.74483 v 2.372416 H 189.56843 V 67.56178 h 3.69549 V 48.582445 h -3.92361 v -2.326794 h 8.02972 v 4.197353 q 1.18621,-2.463664 3.10239,-3.649872 1.87056,-1.186209 4.60796,-1.186209 1.00372,0 2.09868,0.136871 l 2.32679,0.456234 z"
         style="font-family:'DejaVu Math TeX Gyre';-inkscape-font-specification:'DejaVu Math TeX Gyre';fill:#6c6783"
         id="path1640" />
    </g>
    <path
       id="path6885-5-9-1-7-9-0-3"
       style="fill:#6c6783;fill-opacity:1;stroke-width:0.112789"
       d="m 184.15135,28.471603 a 1.5552215,1.6110323 0 0 0 -1.55514,1.611171 1.5552215,1.6110323 0 0 0 1.55514,1.610948 1.5552215,1.6110323 0 0 0 1.55535,-1.610948 1.5552215,1.6110323 0 0 0 -1.55535,-1.611171 z m 0,0.998406 a 0.59142739,0.6126514 0 0 1 0.59153,0.612765 0.59142739,0.6126514 0 0 1 -0.59153,0.612542 0.59142739,0.6126514 0 0 1 -0.59132,-0.612542 0.59142739,0.6126514 0 0 1 0.59132,-0.612765 z" />
    <path
       id="path6885-5-9-1-7-9-0-6-5"
       style="fill:#6c6783;fill-opacity:1;stroke-width:0.112789"
       d="m 185.00772,21.386283 a 1.5552215,1.6110323 0 0 0 -1.55514,1.611171 1.5552215,1.6110323 0 0 0 1.55514,1.610948 1.5552215,1.6110323 0 0 0 1.55535,-1.610948 1.5552215,1.6110323 0 0 0 -1.55535,-1.611171 z m 0,0.998406 a 0.59142739,0.6126514 0 0 1 0.59153,0.612765 0.59142739,0.6126514 0 0 1 -0.59153,0.612542 0.59142739,0.6126514 0 0 1 -0.59132,-0.612542 0.59142739,0.6126514 0 0 1 0.59132,-0.612765 z" />
    <path
       id="path6885-5-9-1-7-9-0-6-2-6"
       style="fill:#6c6783;fill-opacity:1;stroke-width:0.112789"
       d="m 203.19778,42.116403 a 1.5552215,1.6110323 0 0 0 -1.55515,1.611171 1.5552215,1.6110323 0 0 0 1.55515,1.610948 1.5552215,1.6110323 0 0 0 1.55534,-1.610948 1.5552215,1.6110323 0 0 0 -1.55534,-1.611171 z m 0,0.998406 a 0.59142739,0.6126514 0 0 1 0.59153,0.612765 0.59142739,0.6126514 0 0 1 -0.59153,0.612542 0.59142739,0.6126514 0 0 1 -0.59133,-0.612542 0.59142739,0.6126514 0 0 1 0.59133,-0.612765 z" />
    <path
       id="path6885-29"
       style="fill:#eab832;fill-opacity:1;stroke-width:0.195545"
       d="m 170.5757,9.7108377 a 2.7442765,2.7442765 0 0 0 -2.74413,2.7445133 2.7442765,2.7442765 0 0 0 2.74413,2.744131 2.7442765,2.7442765 0 0 0 2.74451,-2.744131 2.7442765,2.7442765 0 0 0 -2.74451,-2.7445133 z m 0,1.7007123 a 1.0436072,1.0436072 0 0 1 1.0438,1.043801 1.0436072,1.0436072 0 0 1 -1.0438,1.043419 1.0436072,1.0436072 0 0 1 -1.04342,-1.043419 1.0436072,1.0436072 0 0 1 1.04342,-1.043801 z" />
    <path
       id="path6885-3"
       style="fill:#eab832;fill-opacity:1;stroke-width:0.195545"
       d="m 170.525,51.705109 a 2.7442765,2.7442765 0 0 0 -2.74413,2.744518 2.7442765,2.7442765 0 0 0 2.74413,2.74413 2.7442765,2.7442765 0 0 0 2.74451,-2.74413 2.7442765,2.7442765 0 0 0 -2.74451,-2.744518 z m 0,1.700713 a 1.0436072,1.0436072 0 0 1 1.0438,1.043805 1.0436072,1.0436072 0 0 1 -1.0438,1.04342 1.0436072,1.0436072 0 0 1 -1.04342,-1.04342 1.0436072,1.0436072 0 0 1 1.04342,-1.043805 z" />
    <path
       id="path6885-3-6"
       style="fill:#eab832;fill-opacity:1;stroke-width:0.195545"
       d="m 160.05254,30.766263 a 2.7442765,2.7442765 0 0 0 -2.74413,2.744513 2.7442765,2.7442765 0 0 0 2.74413,2.744131 2.7442765,2.7442765 0 0 0 2.74451,-2.744131 2.7442765,2.7442765 0 0 0 -2.74451,-2.744513 z m 0,1.700712 a 1.0436072,1.0436072 0 0 1 1.0438,1.043801 1.0436072,1.0436072 0 0 1 -1.0438,1.043419 1.0436072,1.0436072 0 0 1 -1.04342,-1.043419 1.0436072,1.0436072 0 0 1 1.04342,-1.043801 z" />
    <path
       style="fill:#eab832;fill-opacity:1;stroke-width:0.366201"
       d="m 157.24818,33.489051 c -1.42108,3.24133 -5.00299,8.637084 -7.30822,12.514729 -1.82782,3.074584 -3.07526,4.745967 -1.46696,7.614397 2.02289,2.89016 5.55891,2.34043 7.36448,2.34043 2.36031,0 13.63486,0.002 13.63486,0.002 l -0.0387,-2.864244 -14.90037,-0.182433 c 0,0 -1.59495,0.107379 -2.54432,-1.174696 -0.71755,-0.96901 -0.0795,-2.66099 0.40809,-3.383191 2.6514,-3.927559 7.76455,-12.493343 7.76455,-12.493343 z"
       id="path1969-6-1"
       sodipodi:nodetypes="cscscccsscc" />
    <path
       id="path6885-5-9-1-7-9-2"
       style="fill:#6c6783;fill-opacity:1;stroke-width:0.112789"
       d="m 217.92736,37.624684 a 1.5552215,1.6110323 0 0 0 -1.55514,1.611171 1.5552215,1.6110323 0 0 0 1.55514,1.610947 1.5552215,1.6110323 0 0 0 1.55535,-1.610947 1.5552215,1.6110323 0 0 0 -1.55535,-1.611171 z m 0,0.998406 a 0.59142739,0.6126514 0 0 1 0.59153,0.612765 0.59142739,0.6126514 0 0 1 -0.59153,0.612542 0.59142739,0.6126514 0 0 1 -0.59133,-0.612542 0.59142739,0.6126514 0 0 1 0.59133,-0.612765 z" />
    <path
       id="path6885-5-9-1-7-9-3-7"
       style="fill:#6c6783;fill-opacity:1;stroke-width:0.112789"
       d="m 233.95862,32.065379 a 1.5552215,1.6110323 0 0 0 -1.55514,1.611171 1.5552215,1.6110323 0 0 0 1.55514,1.610947 1.5552215,1.6110323 0 0 0 1.55535,-1.610947 1.5552215,1.6110323 0 0 0 -1.55535,-1.611171 z m 0,0.998405 a 0.59142739,0.6126514 0 0 1 0.59153,0.612766 0.59142739,0.6126514 0 0 1 -0.59153,0.612542 0.59142739,0.6126514 0 0 1 -0.59132,-0.612542 0.59142739,0.6126514 0 0 1 0.59132,-0.612766 z" />
    <path
       id="path6885-5-9-1-7-9-6-0"
       style="fill:#6c6783;fill-opacity:1;stroke-width:0.112789"
       d="m 183.3194,38.655841 a 1.5552215,1.6110323 0 0 0 -1.55515,1.611171 1.5552215,1.6110323 0 0 0 1.55515,1.610948 1.5552215,1.6110323 0 0 0 1.55535,-1.610948 1.5552215,1.6110323 0 0 0 -1.55535,-1.611171 z m 0,0.998406 a 0.59142739,0.6126514 0 0 1 0.59153,0.612765 0.59142739,0.6126514 0 0 1 -0.59153,0.612542 0.59142739,0.6126514 0 0 1 -0.59133,-0.612542 0.59142739,0.6126514 0 0 1 0.59133,-0.612765 z" />
  </g>
</svg>
