<?xml version="1.0" encoding="UTF-8" standalone="no"?>
<!-- Created with Inkscape (http://www.inkscape.org/) -->

<svg
   width="1000"
   height="250"
   viewBox="0 0 264.58333 66.145832"
   version="1.1"
   id="svg5"
   inkscape:version="1.2.2 (b0a8486541, 2022-12-01)"
   sodipodi:docname="header.svg"
   xmlns:inkscape="http://www.inkscape.org/namespaces/inkscape"
   xmlns:sodipodi="http://sodipodi.sourceforge.net/DTD/sodipodi-0.dtd"
   xmlns="http://www.w3.org/2000/svg"
   xmlns:svg="http://www.w3.org/2000/svg">
  <sodipodi:namedview
     id="namedview7"
     pagecolor="#ffffff"
     bordercolor="#000000"
     borderopacity="0.25"
     inkscape:showpageshadow="2"
     inkscape:pageopacity="0.0"
     inkscape:pagecheckerboard="0"
     inkscape:deskcolor="#d1d1d1"
     inkscape:document-units="mm"
     showgrid="false"
     inkscape:zoom="2"
     inkscape:cx="642.5"
     inkscape:cy="182.25"
     inkscape:window-width="1854"
     inkscape:window-height="1011"
     inkscape:window-x="66"
     inkscape:window-y="32"
     inkscape:window-maximized="1"
     inkscape:current-layer="layer1" />
  <defs
     id="defs2" />
  <g
     inkscape:label="Layer 1"
     inkscape:groupmode="layer"
     id="layer1">
    <text
       xml:space="preserve"
       style="font-style:normal;font-variant:normal;font-weight:normal;font-stretch:normal;font-size:7.40833px;font-family:'DejaVu Math TeX Gyre';-inkscape-font-specification:'DejaVu Math TeX Gyre';opacity:1;fill:#6c6783;fill-opacity:1;stroke-width:0.264583"
       x="32.634243"
       y="18.719837"
       id="text12696"><tspan
         sodipodi:role="line"
         id="tspan12694"
         style="font-style:normal;font-variant:normal;font-weight:normal;font-stretch:normal;font-size:7.40833px;font-family:monospace;-inkscape-font-specification:monospace;stroke-width:0.264583"
         x="32.634243"
         y="18.719837">The</tspan></text>
    <text
       xml:space="preserve"
       style="font-style:normal;font-variant:normal;font-weight:normal;font-stretch:normal;font-size:21.1667px;font-family:'DejaVu Math TeX Gyre';-inkscape-font-specification:'DejaVu Math TeX Gyre';opacity:1;fill:#6c6783;fill-opacity:1;stroke-width:1.465;stroke-dasharray:none"
       x="63.773781"
       y="37.18689"
       id="text12700"><tspan
         sodipodi:role="line"
         id="tspan12698"
         style="font-style:normal;font-variant:normal;font-weight:normal;font-stretch:normal;font-family:monospace;-inkscape-font-specification:monospace;stroke-width:1.465;stroke-dasharray:none"
         x="63.773781"
         y="37.18689">Ray</tspan></text>
    <text
       xml:space="preserve"
       style="font-style:normal;font-variant:normal;font-weight:normal;font-stretch:normal;font-size:21.1667px;font-family:'DejaVu Math TeX Gyre';-inkscape-font-specification:'DejaVu Math TeX Gyre';opacity:1;fill:#6c6783;fill-opacity:1;stroke-width:1.465;stroke-dasharray:none"
       x="107.78701"
       y="49.458641"
       id="text12704"><tspan
         sodipodi:role="line"
         id="tspan12702"
         style="stroke-width:1.465"
         x="107.78701"
         y="49.458641" /></text>
    <text
       xml:space="preserve"
       style="font-style:normal;font-variant:normal;font-weight:normal;font-stretch:normal;font-size:7.40833px;font-family:'DejaVu Math TeX Gyre';-inkscape-font-specification:'DejaVu Math TeX Gyre';opacity:1;fill:#6c6783;fill-opacity:1;stroke-width:1.465;stroke-dasharray:none"
       x="32.53072"
       y="48.240742"
       id="text12708"><tspan
         sodipodi:role="line"
         id="tspan12706"
         style="font-style:normal;font-variant:normal;font-weight:normal;font-stretch:normal;font-size:7.40833px;font-family:monospace;-inkscape-font-specification:monospace;stroke-width:1.465"
         x="32.53072"
         y="48.240742">Programming Language</tspan></text>
    <path
       id="path281"
       style="fill:#eab832;fill-opacity:1;stroke-width:0.0443967"
       d="m 40.094322,21.585794 a 8.259298,8.259298 0 0 0 -8.259329,8.259337 8.259298,8.259298 0 0 0 8.259329,8.259246 8.259298,8.259298 0 0 0 8.259336,-8.259246 8.259298,8.259298 0 0 0 -8.259336,-8.259337 z m 0,2.927549 a 5.3318058,5.3318058 0 0 1 5.331796,5.331788 5.3318058,5.3318058 0 0 1 -5.331796,5.331788 5.3318058,5.3318058 0 0 1 -5.331788,-5.331788 5.3318058,5.3318058 0 0 1 5.331788,-5.331788 z" />
    <rect
       style="fill:#eab832;fill-opacity:1;stroke-width:0.0423191"
       id="rect2690"
       width="13.530012"
       height="2.7715914"
       x="47.380173"
       y="28.459291" />
    <text
       xml:space="preserve"
       style="font-style:normal;font-variant:normal;font-weight:normal;font-stretch:normal;font-size:7.40833px;font-family:monospace;-inkscape-font-specification:monospace;opacity:1;fill:#6c6783;fill-opacity:1;stroke-width:1.465;stroke-dasharray:none"
       x="129.02455"
       y="35.57732"
       id="text13504"><tspan
         sodipodi:role="line"
         id="tspan13502"
         style="stroke-width:1.465"
         x="129.02455"
         y="35.57732">&amp;</tspan></text>
    <path
       style="fill:#eab832;fill-opacity:1;stroke-width:0.366201"
       d="m 157.24574,33.570275 c -1.42108,-3.24133 -5.00299,-8.637084 -7.30822,-12.514728 -1.82782,-3.074584 -3.07526,-4.745968 -1.46696,-7.614394 2.02289,-2.890165 5.55891,-2.340435 7.36448,-2.340435 2.3603,0 13.63486,-0.0015 13.63486,-0.0015 l -0.0387,2.864245 -14.90037,0.182433 c 0,0 -1.59496,-0.10738 -2.54433,1.174696 -0.71754,0.969009 -0.0794,2.66099 0.4081,3.383191 2.6514,3.927559 7.76455,12.493342 7.76455,12.493342 z"
       id="path1969-7"
       sodipodi:nodetypes="cscscccsscc" />
    <g
       aria-label="ther"
       id="text2216-5"
       style="font-size:45.6234px;fill:#eab832;stroke-width:0.570291"
       transform="matrix(0.64212999,0,0,0.64212999,100.19997,-0.43900118)">
      <path
         d="m 131.0337,64.368141 q -0.18249,3.193639 -1.73369,4.744834 -1.68806,1.459949 -4.83608,1.459949 -3.55862,0 -5.01857,-1.551196 -1.45995,-1.688065 -1.45995,-5.337938 V 48.628068 h -3.60425 v -2.372417 h 3.60425 v -7.345368 h 4.10611 v 7.345368 h 7.71035 v 2.372417 h -7.71035 V 63.68379 q 0,3.011145 0.5931,3.87799 0.5931,0.821221 2.1443,0.821221 1.5512,0 2.32679,-0.958092 0.68435,-0.912468 0.7756,-3.056768 z"
         style="font-family:'DejaVu Math TeX Gyre';-inkscape-font-specification:'DejaVu Math TeX Gyre';fill:#6c6783"
         id="path1634" />
      <path
         d="m 159.45704,69.934196 h -11.3146 V 67.56178 h 3.55862 V 56.155929 q 0,-4.334223 -1.09496,-5.931042 -1.04934,-1.596819 -3.74112,-1.596819 -2.82865,0 -4.33422,2.053053 -1.50558,2.098676 -1.50558,6.067912 V 67.56178 h 3.55863 v 2.372416 H 133.22358 V 67.56178 h 3.6955 V 37.632828 h -3.92361 v -2.372417 h 8.02971 v 15.192593 q 1.18621,-2.463664 2.9199,-3.604249 1.82494,-1.231832 4.24298,-1.231832 3.96923,0 5.79417,2.235547 1.82494,2.326794 1.82494,7.026004 V 67.56178 h 3.64987 z"
         style="font-family:'DejaVu Math TeX Gyre';-inkscape-font-specification:'DejaVu Math TeX Gyre';fill:#6c6783"
         id="path1636" />
      <path
         d="m 180.62625,56.155929 q -0.13687,-4.106106 -1.73368,-6.250406 -1.64245,-2.098676 -4.65359,-2.098676 -2.87428,0 -4.4711,2.1443 -1.64244,2.098676 -1.9618,6.204782 z m 4.83608,2.372417 h -17.65625 v 0.182494 q 0,4.83608 1.77931,7.208497 1.82494,2.463664 5.33794,2.463664 2.7374,0 4.42547,-1.414326 1.73369,-1.459948 2.41804,-4.197353 h 3.28488 q -0.95809,3.87799 -3.60424,5.839796 -2.64616,1.961806 -6.93476,1.961806 -5.20107,0 -8.34908,-3.421755 -3.14802,-3.421755 -3.14802,-9.079057 0,-5.566055 3.10239,-9.033433 3.05677,-3.421756 8.12097,-3.421756 5.38356,0 8.25783,3.330509 2.9199,3.330508 2.96552,9.580914 z"
         style="font-family:'DejaVu Math TeX Gyre';-inkscape-font-specification:'DejaVu Math TeX Gyre';fill:#6c6783"
         id="path1638" />
      <path
         d="m 209.50585,52.14107 h -2.37241 q -0.0456,-1.733689 -0.95809,-2.646157 -0.86685,-0.866845 -2.55491,-0.866845 -3.05677,0 -4.60797,2.098676 -1.64244,2.1443 -1.64244,6.022289 V 67.56178 h 4.74483 v 2.372416 H 189.56843 V 67.56178 h 3.69549 V 48.582445 h -3.92361 v -2.326794 h 8.02972 v 4.197353 q 1.18621,-2.463664 3.10239,-3.649872 1.87056,-1.186209 4.60796,-1.186209 1.00372,0 2.09868,0.136871 l 2.32679,0.456234 z"
         style="font-family:'DejaVu Math TeX Gyre';-inkscape-font-specification:'DejaVu Math TeX Gyre';fill:#6c6783"
         id="path1640" />
    </g>
    <path
       id="path6885-5-9-1-7-9-0-3"
       style="fill:#6c6783;fill-opacity:1;stroke-width:0.112789"
       d="m 184.15135,28.471603 a 1.5552215,1.6110323 0 0 0 -1.55514,1.611171 1.5552215,1.6110323 0 0 0 1.55514,1.610948 1.5552215,1.6110323 0 0 0 1.55535,-1.610948 1.5552215,1.6110323 0 0 0 -1.55535,-1.611171 z m 0,0.998406 a 0.59142739,0.6126514 0 0 1 0.59153,0.612765 0.59142739,0.6126514 0 0 1 -0.59153,0.612542 0.59142739,0.6126514 0 0 1 -0.59132,-0.612542 0.59142739,0.6126514 0 0 1 0.59132,-0.612765 z" />
    <path
       id="path6885-5-9-1-7-9-0-6-5"
       style="fill:#6c6783;fill-opacity:1;stroke-width:0.112789"
       d="m 185.00772,21.386283 a 1.5552215,1.6110323 0 0 0 -1.55514,1.611171 1.5552215,1.6110323 0 0 0 1.55514,1.610948 1.5552215,1.6110323 0 0 0 1.55535,-1.610948 1.5552215,1.6110323 0 0 0 -1.55535,-1.611171 z m 0,0.998406 a 0.59142739,0.6126514 0 0 1 0.59153,0.612765 0.59142739,0.6126514 0 0 1 -0.59153,0.612542 0.59142739,0.6126514 0 0 1 -0.59132,-0.612542 0.59142739,0.6126514 0 0 1 0.59132,-0.612765 z" />
    <path
       id="path6885-5-9-1-7-9-0-6-2-6"
       style="fill:#6c6783;fill-opacity:1;stroke-width:0.112789"
       d="m 203.19778,42.116403 a 1.5552215,1.6110323 0 0 0 -1.55515,1.611171 1.5552215,1.6110323 0 0 0 1.55515,1.610948 1.5552215,1.6110323 0 0 0 1.55534,-1.610948 1.5552215,1.6110323 0 0 0 -1.55534,-1.611171 z m 0,0.998406 a 0.59142739,0.6126514 0 0 1 0.59153,0.612765 0.59142739,0.6126514 0 0 1 -0.59153,0.612542 0.59142739,0.6126514 0 0 1 -0.59133,-0.612542 0.59142739,0.6126514 0 0 1 0.59133,-0.612765 z" />
    <path
       id="path6885-29"
       style="fill:#eab832;fill-opacity:1;stroke-width:0.195545"
       d="m 170.5757,9.7108377 a 2.7442765,2.7442765 0 0 0 -2.74413,2.7445133 2.7442765,2.7442765 0 0 0 2.74413,2.744131 2.7442765,2.7442765 0 0 0 2.74451,-2.744131 2.7442765,2.7442765 0 0 0 -2.74451,-2.7445133 z m 0,1.7007123 a 1.0436072,1.0436072 0 0 1 1.0438,1.043801 1.0436072,1.0436072 0 0 1 -1.0438,1.043419 1.0436072,1.0436072 0 0 1 -1.04342,-1.043419 1.0436072,1.0436072 0 0 1 1.04342,-1.043801 z" />
    <path
       id="path6885-3"
       style="fill:#eab832;fill-opacity:1;stroke-width:0.195545"
       d="m 170.525,51.705109 a 2.7442765,2.7442765 0 0 0 -2.74413,2.744518 2.7442765,2.7442765 0 0 0 2.74413,2.74413 2.7442765,2.7442765 0 0 0 2.74451,-2.74413 2.7442765,2.7442765 0 0 0 -2.74451,-2.744518 z m 0,1.700713 a 1.0436072,1.0436072 0 0 1 1.0438,1.043805 1.0436072,1.0436072 0 0 1 -1.0438,1.04342 1.0436072,1.0436072 0 0 1 -1.04342,-1.04342 1.0436072,1.0436072 0 0 1 1.04342,-1.043805 z" />
    <path
       id="path6885-3-6"
       style="fill:#eab832;fill-opacity:1;stroke-width:0.195545"
       d="m 160.05254,30.766263 a 2.7442765,2.7442765 0 0 0 -2.74413,2.744513 2.7442765,2.7442765 0 0 0 2.74413,2.744131 2.7442765,2.7442765 0 0 0 2.74451,-2.744131 2.7442765,2.7442765 0 0 0 -2.74451,-2.744513 z m 0,1.700712 a 1.0436072,1.0436072 0 0 1 1.0438,1.043801 1.0436072,1.0436072 0 0 1 -1.0438,1.043419 1.0436072,1.0436072 0 0 1 -1.04342,-1.043419 1.0436072,1.0436072 0 0 1 1.04342,-1.043801 z" />
    <path
       style="fill:#eab832;fill-opacity:1;stroke-width:0.366201"
       d="m 157.24818,33.489051 c -1.42108,3.24133 -5.00299,8.637084 -7.30822,12.514729 -1.82782,3.074584 -3.07526,4.745967 -1.46696,7.614397 2.02289,2.89016 5.55891,2.34043 7.36448,2.34043 2.36031,0 13.63486,0.002 13.63486,0.002 l -0.0387,-2.864244 -14.90037,-0.182433 c 0,0 -1.59495,0.107379 -2.54432,-1.174696 -0.71755,-0.96901 -0.0795,-2.66099 0.40809,-3.383191 2.6514,-3.927559 7.76455,-12.493343 7.76455,-12.493343 z"
       id="path1969-6-1"
       sodipodi:nodetypes="cscscccsscc" />
    <path
       id="path6885-5-9-1-7-9-2"
       style="fill:#6c6783;fill-opacity:1;stroke-width:0.112789"
       d="m 217.92736,37.624684 a 1.5552215,1.6110323 0 0 0 -1.55514,1.611171 1.5552215,1.6110323 0 0 0 1.55514,1.610947 1.5552215,1.6110323 0 0 0 1.55535,-1.610947 1.5552215,1.6110323 0 0 0 -1.55535,-1.611171 z m 0,0.998406 a 0.59142739,0.6126514 0 0 1 0.59153,0.612765 0.59142739,0.6126514 0 0 1 -0.59153,0.612542 0.59142739,0.6126514 0 0 1 -0.59133,-0.612542 0.59142739,0.6126514 0 0 1 0.59133,-0.612765 z" />
    <path
       id="path6885-5-9-1-7-9-3-7"
       style="fill:#6c6783;fill-opacity:1;stroke-width:0.112789"
       d="m 233.95862,32.065379 a 1.5552215,1.6110323 0 0 0 -1.55514,1.611171 1.5552215,1.6110323 0 0 0 1.55514,1.610947 1.5552215,1.6110323 0 0 0 1.55535,-1.610947 1.5552215,1.6110323 0 0 0 -1.55535,-1.611171 z m 0,0.998405 a 0.59142739,0.6126514 0 0 1 0.59153,0.612766 0.59142739,0.6126514 0 0 1 -0.59153,0.612542 0.59142739,0.6126514 0 0 1 -0.59132,-0.612542 0.59142739,0.6126514 0 0 1 0.59132,-0.612766 z" />
    <path
       id="path6885-5-9-1-7-9-6-0"
       style="fill:#6c6783;fill-opacity:1;stroke-width:0.112789"
       d="m 183.3194,38.655841 a 1.5552215,1.6110323 0 0 0 -1.55515,1.611171 1.5552215,1.6110323 0 0 0 1.55515,1.610948 1.5552215,1.6110323 0 0 0 1.55535,-1.610948 1.5552215,1.6110323 0 0 0 -1.55535,-1.611171 z m 0,0.998406 a 0.59142739,0.6126514 0 0 1 0.59153,0.612765 0.59142739,0.6126514 0 0 1 -0.59153,0.612542 0.59142739,0.6126514 0 0 1 -0.59133,-0.612542 0.59142739,0.6126514 0 0 1 0.59133,-0.612765 z" />
  </g>
</svg>
